<svg id="svg" version="1.1" xmlns="http://www.w3.org/2000/svg"
    xmlns:xlink="http://www.w3.org/1999/xlink" width="400" height="397.9865771812081"
    viewBox="0, 0, 400,397.9865771812081">
    <g id="svgg">
        <path id="path0"
            d="M0.000 198.993 L 0.000 397.987 200.000 397.987 L 400.000 397.987 400.000 198.993 L 400.000 0.000 200.000 0.000 L 0.000 0.000 0.000 198.993 M398.239 199.077 L 398.154 397.483 199.748 397.567 L 1.342 397.652 1.342 199.161 L 1.342 0.671 199.832 0.671 L 398.323 0.671 398.239 199.077 M80.872 99.832 L 80.872 124.832 199.664 124.832 L 318.456 124.832 318.456 99.832 L 318.456 74.832 199.664 74.832 L 80.872 74.832 80.872 99.832 M250.069 153.656 C 245.304 155.302,242.592 159.921,243.065 165.585 C 244.281 180.108,265.599 178.856,265.599 164.262 C 265.599 155.796,258.301 150.812,250.069 153.656 M100.279 161.191 C 100.155 169.951,100.108 170.134,97.987 170.134 C 96.558 170.134,95.989 169.620,95.665 168.035 L 95.442 166.946 92.604 166.946 L 89.765 166.946 89.878 168.624 C 90.403 176.393,101.560 178.707,105.245 171.812 C 105.802 170.770,105.885 169.666,105.981 161.997 L 106.090 153.356 103.240 153.356 L 100.390 153.356 100.279 161.191 M111.909 164.010 C 109.562 169.870,107.567 174.853,107.476 175.084 C 107.351 175.402,108.085 175.503,110.507 175.503 L 113.702 175.503 114.177 174.077 L 114.652 172.651 119.193 172.558 L 123.733 172.465 124.159 173.984 L 124.584 175.503 127.753 175.503 C 130.258 175.503,130.899 175.408,130.813 175.046 C 130.754 174.794,128.817 169.815,126.510 163.981 L 122.315 153.373 119.246 153.365 L 116.176 153.356 111.909 164.010 M132.630 164.346 L 132.718 175.336 135.654 175.433 L 138.591 175.529 138.591 172.367 L 138.591 169.204 142.030 169.064 C 149.117 168.775,152.398 164.539,150.496 158.135 C 149.350 154.276,147.066 153.356,138.631 153.356 L 132.541 153.356 132.630 164.346 M161.074 161.218 C 161.074 169.942,161.027 170.134,158.921 170.134 C 157.713 170.134,156.714 169.290,156.706 168.262 C 156.696 166.932,156.268 166.744,153.494 166.847 L 150.839 166.946 150.880 168.642 C 150.985 172.968,153.982 175.580,158.889 175.622 C 165.865 175.682,167.109 173.393,167.112 160.487 L 167.114 153.356 164.094 153.356 L 161.074 153.356 161.074 161.218 M170.805 164.430 L 170.805 175.503 173.826 175.503 L 176.846 175.503 176.846 164.430 L 176.846 153.356 173.826 153.356 L 170.805 153.356 170.805 164.430 M189.876 161.191 C 189.752 169.951,189.705 170.134,187.584 170.134 C 186.155 170.134,185.586 169.620,185.262 168.035 L 185.040 166.946 182.201 166.946 L 179.362 166.946 179.476 168.624 C 180.000 176.393,191.157 178.707,194.842 171.812 C 195.399 170.770,195.482 169.666,195.579 161.997 L 195.688 153.356 192.837 153.356 L 189.987 153.356 189.876 161.191 M199.408 164.346 L 199.497 175.336 202.433 175.433 L 205.369 175.529 205.369 171.322 L 205.369 167.114 209.228 167.114 L 213.087 167.114 213.087 171.309 L 213.087 175.503 216.107 175.503 L 219.128 175.503 219.128 164.430 L 219.128 153.356 216.107 153.356 L 213.087 153.356 213.087 157.550 L 213.087 161.745 209.228 161.745 L 205.369 161.745 205.369 157.550 L 205.369 153.356 202.344 153.356 L 199.320 153.356 199.408 164.346 M221.141 153.517 C 221.141 153.606,223.029 156.759,225.336 160.524 L 229.530 167.370 229.530 171.437 L 229.530 175.503 232.383 175.503 L 235.235 175.503 235.235 171.428 L 235.235 167.354 239.430 160.551 C 241.737 156.809,243.624 153.654,243.624 153.540 C 243.624 153.425,242.156 153.375,240.362 153.427 L 237.100 153.523 234.981 157.215 C 233.815 159.245,232.748 161.094,232.610 161.323 C 232.452 161.585,231.513 160.185,230.079 157.548 L 227.799 153.356 224.470 153.356 C 222.639 153.356,221.141 153.428,221.141 153.517 M268.536 164.346 L 268.624 175.336 271.560 175.433 L 274.497 175.529 274.497 169.426 L 274.497 163.322 279.111 169.410 L 283.725 175.499 286.326 175.501 L 288.926 175.503 288.926 164.430 L 288.926 153.356 286.074 153.356 L 283.221 153.356 283.221 159.457 L 283.221 165.558 278.700 159.457 L 274.178 153.356 271.313 153.356 L 268.447 153.356 268.536 164.346 M291.275 156.040 L 291.275 158.725 294.463 158.725 L 297.651 158.725 297.651 167.114 L 297.651 175.503 300.671 175.503 L 303.691 175.503 303.691 167.114 L 303.691 158.725 306.879 158.725 L 310.067 158.725 310.067 156.040 L 310.067 153.356 300.671 153.356 L 291.275 153.356 291.275 156.040 M257.047 159.060 C 259.473 160.359,260.538 165.414,258.862 167.677 C 255.698 171.946,249.725 170.394,249.103 165.140 C 248.534 160.331,253.014 156.902,257.047 159.060 M143.998 159.081 C 146.932 160.651,144.613 164.094,140.621 164.094 L 138.591 164.094 138.591 161.409 L 138.591 158.725 140.962 158.725 C 142.266 158.725,143.632 158.885,143.998 159.081 M119.371 167.046 C 116.553 167.166,116.545 167.159,117.218 165.360 C 117.513 164.571,118.084 163.031,118.487 161.937 L 119.220 159.949 120.464 163.447 L 121.708 166.946 119.371 167.046 M80.872 264.933 L 80.872 323.154 199.664 323.154 L 318.456 323.154 318.456 264.933 L 318.456 206.711 288.733 206.711 L 259.011 206.711 257.392 208.305 C 256.502 209.182,243.124 223.170,227.664 239.390 L 199.553 268.881 197.497 266.739 C 196.366 265.561,183.017 251.573,167.833 235.654 L 140.225 206.711 110.549 206.711 L 80.872 206.711 80.872 264.933 "
            stroke="none" fill="#f9f9f9" fill-rule="evenodd"></path>
        <path id="path1"
            d="M1.678 199.161 L 1.678 397.315 199.832 397.315 L 397.987 397.315 397.987 199.161 L 397.987 1.007 199.832 1.007 L 1.678 1.007 1.678 199.161 M318.792 99.832 L 318.792 124.832 199.664 124.832 L 80.537 124.832 80.537 99.832 L 80.537 74.832 199.664 74.832 L 318.792 74.832 318.792 99.832 M259.775 153.906 C 265.174 156.328,267.502 163.521,264.838 169.545 C 260.973 178.283,247.009 177.886,243.642 168.943 C 239.742 158.585,249.642 149.358,259.775 153.906 M105.976 161.997 C 105.834 174.326,105.045 175.671,97.960 175.671 C 92.744 175.671,90.061 173.376,89.663 168.572 L 89.514 166.779 92.576 166.779 C 95.571 166.779,95.638 166.796,95.638 167.572 C 95.638 169.570,98.000 170.834,99.386 169.579 C 99.948 169.070,100.000 168.348,100.000 161.022 L 100.000 153.020 103.040 153.020 L 106.080 153.020 105.976 161.997 M126.314 163.172 C 128.513 168.755,130.516 173.813,130.765 174.413 L 131.217 175.503 127.902 175.503 L 124.588 175.503 124.011 173.993 L 123.434 172.483 119.128 172.483 L 114.821 172.483 114.346 173.909 L 113.872 175.336 110.585 175.432 C 107.566 175.521,107.311 175.480,107.459 174.929 C 107.548 174.599,109.548 169.534,111.903 163.674 L 116.185 153.020 119.250 153.021 L 122.315 153.022 126.314 163.172 M145.378 153.483 C 149.163 154.374,150.986 156.737,150.999 160.772 C 151.018 166.366,148.216 168.987,141.808 169.370 L 138.591 169.562 138.591 172.533 L 138.591 175.503 135.570 175.503 L 132.550 175.503 132.550 164.262 L 132.550 153.020 138.003 153.025 C 141.384 153.029,144.187 153.203,145.378 153.483 M167.055 161.997 C 166.933 172.039,166.782 172.723,164.294 174.428 C 158.745 178.230,150.671 174.655,150.671 168.396 L 150.671 166.779 153.691 166.779 L 156.711 166.779 156.711 167.785 C 156.711 169.688,158.744 170.762,160.255 169.658 C 160.863 169.214,160.913 168.650,161.007 161.101 L 161.108 153.020 164.135 153.020 L 167.163 153.020 167.055 161.997 M176.846 164.262 L 176.846 175.503 173.826 175.503 L 170.805 175.503 170.805 164.262 L 170.805 153.020 173.826 153.020 L 176.846 153.020 176.846 164.262 M195.574 161.997 C 195.431 174.326,194.642 175.671,187.558 175.671 C 182.342 175.671,179.659 173.376,179.260 168.572 L 179.112 166.779 182.173 166.779 C 185.169 166.779,185.235 166.796,185.235 167.572 C 185.235 169.570,187.597 170.834,188.984 169.579 C 189.545 169.070,189.597 168.348,189.597 161.022 L 189.597 153.020 192.637 153.020 L 195.678 153.020 195.574 161.997 M205.369 157.383 L 205.369 161.745 209.228 161.745 L 213.087 161.745 213.087 157.383 L 213.087 153.020 216.107 153.020 L 219.128 153.020 219.128 164.262 L 219.128 175.503 216.107 175.503 L 213.087 175.503 213.087 171.477 L 213.087 167.450 209.228 167.450 L 205.369 167.450 205.369 171.477 L 205.369 175.503 202.349 175.503 L 199.329 175.503 199.329 164.262 L 199.329 153.020 202.349 153.020 L 205.369 153.020 205.369 157.383 M230.056 157.219 C 231.300 159.529,232.383 161.353,232.463 161.273 C 232.543 161.193,233.616 159.341,234.848 157.158 L 237.087 153.188 240.564 153.092 C 243.616 153.008,244.016 153.060,243.838 153.525 C 243.726 153.816,241.820 156.989,239.603 160.576 L 235.570 167.097 235.570 171.300 L 235.570 175.503 232.383 175.503 L 229.195 175.503 229.195 171.313 L 229.195 167.123 225.126 160.491 C 222.889 156.843,220.985 153.670,220.896 153.440 C 220.772 153.120,221.577 153.020,224.264 153.020 L 227.794 153.020 230.056 157.219 M278.663 159.162 L 283.054 165.135 283.145 159.078 L 283.237 153.020 286.249 153.020 L 289.262 153.020 289.262 164.262 L 289.262 175.503 286.417 175.503 L 283.573 175.503 279.119 169.643 L 274.664 163.783 274.573 169.643 L 274.481 175.503 271.469 175.503 L 268.456 175.503 268.456 164.249 L 268.456 152.994 271.364 153.091 L 274.272 153.188 278.663 159.162 M310.403 155.872 L 310.403 158.725 307.047 158.725 L 303.691 158.725 303.691 167.114 L 303.691 175.503 300.671 175.503 L 297.651 175.503 297.651 167.114 L 297.651 158.725 294.295 158.725 L 290.940 158.725 290.940 156.096 C 290.940 152.722,289.976 153.020,300.895 153.020 L 310.403 153.020 310.403 155.872 M138.591 161.205 L 138.591 163.758 140.894 163.758 C 146.562 163.758,146.735 159.063,141.078 158.777 L 138.591 158.651 138.591 161.205 M251.696 159.451 C 247.185 162.517,249.057 169.941,254.336 169.922 C 259.421 169.904,261.553 163.573,257.713 159.894 C 256.286 158.528,253.371 158.313,251.696 159.451 M118.913 161.277 C 118.787 161.627,118.268 163.008,117.760 164.346 L 116.837 166.779 119.136 166.779 L 121.434 166.779 120.452 163.874 C 119.338 160.576,119.232 160.398,118.913 161.277 M169.964 237.595 C 186.172 254.580,199.535 268.435,199.661 268.383 C 199.786 268.331,213.090 254.440,229.223 237.515 L 258.557 206.741 288.674 206.726 L 318.792 206.711 318.792 264.933 L 318.792 323.154 199.664 323.154 L 80.537 323.154 80.537 264.933 L 80.537 206.711 110.516 206.711 L 140.496 206.711 169.964 237.595 "
            stroke="none" fill="#040404" fill-rule="evenodd"></path>
        <path id="path2"
            d="M398.070 198.909 L 397.987 397.315 199.581 397.399 L 1.174 397.484 199.591 397.567 C 358.077 397.634,398.040 397.567,398.167 397.232 C 398.254 397.001,398.287 307.643,398.240 198.658 L 398.154 0.503 398.070 198.909 M80.696 99.832 C 80.696 113.490,80.738 119.028,80.788 112.140 C 80.839 105.251,80.839 94.077,80.788 87.307 C 80.738 80.538,80.696 86.174,80.696 99.832 M318.616 99.832 C 318.616 113.490,318.657 119.028,318.708 112.140 C 318.759 105.251,318.759 94.077,318.708 87.307 C 318.657 80.538,318.616 86.174,318.616 99.832 M100.150 153.448 C 100.060 153.684,100.030 157.044,100.084 160.915 L 100.182 167.953 100.259 160.667 L 100.336 153.382 103.272 153.270 L 106.208 153.158 103.261 153.089 C 101.129 153.039,100.269 153.139,100.150 153.448 M117.534 153.267 C 118.410 153.336,119.845 153.336,120.721 153.267 C 121.598 153.198,120.881 153.141,119.128 153.141 C 117.374 153.141,116.657 153.198,117.534 153.267 M135.151 153.270 C 136.674 153.332,139.165 153.332,140.688 153.270 C 142.211 153.208,140.965 153.157,137.919 153.157 C 134.874 153.157,133.628 153.208,135.151 153.270 M162.500 153.267 C 163.377 153.336,164.811 153.336,165.688 153.267 C 166.565 153.198,165.847 153.141,164.094 153.141 C 162.341 153.141,161.623 153.198,162.500 153.267 M172.232 153.267 C 173.108 153.336,174.543 153.336,175.419 153.267 C 176.296 153.198,175.579 153.141,173.826 153.141 C 172.072 153.141,171.355 153.198,172.232 153.267 M189.748 153.448 C 189.657 153.684,189.627 157.044,189.681 160.915 L 189.779 167.953 189.856 160.667 L 189.933 153.382 192.869 153.270 L 195.805 153.158 192.859 153.089 C 190.727 153.039,189.866 153.139,189.748 153.448 M200.755 153.267 C 201.632 153.336,203.066 153.336,203.943 153.267 C 204.820 153.198,204.102 153.141,202.349 153.141 C 200.596 153.141,199.878 153.198,200.755 153.267 M214.859 153.267 C 215.741 153.337,217.100 153.336,217.879 153.265 C 218.658 153.195,217.936 153.138,216.275 153.139 C 214.614 153.140,213.977 153.198,214.859 153.267 M221.024 153.272 C 220.938 153.410,221.948 153.482,223.269 153.432 C 227.586 153.267,228.084 153.134,224.600 153.077 C 222.719 153.046,221.110 153.133,221.024 153.272 M237.132 153.272 C 237.047 153.410,238.548 153.523,240.468 153.523 C 242.389 153.523,243.960 153.410,243.960 153.272 C 243.960 153.133,242.459 153.020,240.624 153.020 C 238.789 153.020,237.218 153.133,237.132 153.272 M271.124 153.271 C 272.684 153.334,274.194 153.567,274.480 153.790 C 274.937 154.145,274.944 154.123,274.539 153.607 C 274.156 153.118,273.595 153.032,271.184 153.088 L 268.289 153.157 271.124 153.271 M285.985 153.263 L 288.917 153.382 289.012 164.359 L 289.108 175.336 289.101 164.262 L 289.094 153.188 286.074 153.166 L 283.054 153.144 285.985 153.263 M291.082 153.468 C 290.986 153.720,290.960 154.968,291.025 156.241 L 291.144 158.557 291.209 155.956 L 291.275 153.356 300.657 153.356 L 310.039 153.356 310.158 155.789 L 310.277 158.221 310.256 155.705 L 310.235 153.188 300.747 153.099 C 292.978 153.026,291.226 153.093,291.082 153.468 M253.775 158.621 C 254.098 158.705,254.627 158.705,254.950 158.621 C 255.273 158.536,255.008 158.467,254.362 158.467 C 253.716 158.467,253.452 158.536,253.775 158.621 M139.506 169.370 C 140.102 169.444,141.159 169.445,141.855 169.372 C 142.551 169.300,142.064 169.239,140.772 169.238 C 139.480 169.236,138.910 169.296,139.506 169.370 M140.268 206.816 C 140.268 206.874,140.759 207.365,141.359 207.907 L 142.450 208.893 141.464 207.802 C 140.545 206.785,140.268 206.557,140.268 206.816 M80.701 264.933 C 80.701 296.862,80.740 309.875,80.789 293.849 C 80.837 277.824,80.837 251.700,80.789 235.796 C 80.740 219.892,80.701 233.003,80.701 264.933 M318.620 264.933 C 318.620 296.862,318.660 309.875,318.708 293.849 C 318.756 277.824,318.756 251.700,318.708 235.796 C 318.660 219.892,318.620 233.003,318.620 264.933 M253.843 211.829 L 252.517 213.255 253.943 211.929 C 255.269 210.695,255.523 210.403,255.269 210.403 C 255.215 210.403,254.573 211.044,253.843 211.829 M147.819 214.765 C 148.540 215.503,149.205 216.107,149.297 216.107 C 149.390 216.107,148.875 215.503,148.154 214.765 C 147.433 214.027,146.768 213.423,146.676 213.423 C 146.584 213.423,147.098 214.027,147.819 214.765 M246.796 219.211 L 245.470 220.638 246.896 219.311 C 248.222 218.077,248.476 217.785,248.222 217.785 C 248.168 217.785,247.526 218.427,246.796 219.211 M154.866 222.148 C 155.587 222.886,156.252 223.490,156.344 223.490 C 156.437 223.490,155.922 222.886,155.201 222.148 C 154.480 221.409,153.815 220.805,153.723 220.805 C 153.631 220.805,154.145 221.409,154.866 222.148 M239.933 226.342 C 239.118 227.173,238.526 227.852,238.619 227.852 C 238.711 227.852,239.453 227.173,240.268 226.342 C 241.084 225.512,241.675 224.832,241.583 224.832 C 241.490 224.832,240.748 225.512,239.933 226.342 M161.731 229.279 C 163.122 230.760,163.423 231.027,163.423 230.775 C 163.423 230.721,162.706 230.003,161.829 229.181 L 160.235 227.685 161.731 229.279 M232.886 233.725 C 232.071 234.555,231.479 235.235,231.572 235.235 C 231.664 235.235,232.406 234.555,233.221 233.725 C 234.037 232.894,234.628 232.215,234.536 232.215 C 234.443 232.215,233.701 232.894,232.886 233.725 M168.778 236.661 C 170.169 238.143,170.470 238.409,170.470 238.157 C 170.470 238.103,169.753 237.386,168.876 236.563 L 167.282 235.067 168.778 236.661 M225.839 241.107 C 225.024 241.938,224.432 242.617,224.525 242.617 C 224.617 242.617,225.359 241.938,226.174 241.107 C 226.990 240.277,227.581 239.597,227.489 239.597 C 227.396 239.597,226.654 240.277,225.839 241.107 M175.825 244.044 C 177.215 245.525,177.517 245.792,177.517 245.540 C 177.517 245.486,176.799 244.769,175.923 243.946 L 174.329 242.450 175.825 244.044 M218.792 248.490 C 217.977 249.320,217.385 250.000,217.478 250.000 C 217.570 250.000,218.312 249.320,219.128 248.490 C 219.943 247.659,220.534 246.980,220.442 246.980 C 220.349 246.980,219.607 247.659,218.792 248.490 M182.872 251.426 C 183.695 252.303,184.412 253.020,184.466 253.020 C 184.718 253.020,184.451 252.719,182.970 251.328 L 181.376 249.832 182.872 251.426 M211.745 255.872 C 210.930 256.703,210.338 257.383,210.431 257.383 C 210.523 257.383,211.265 256.703,212.081 255.872 C 212.896 255.042,213.487 254.362,213.395 254.362 C 213.302 254.362,212.560 255.042,211.745 255.872 M189.919 258.809 C 190.742 259.685,191.459 260.403,191.513 260.403 C 191.765 260.403,191.498 260.101,190.017 258.711 L 188.423 257.215 189.919 258.809 M204.850 263.171 L 203.523 264.597 204.950 263.271 C 206.276 262.037,206.530 261.745,206.276 261.745 C 206.221 261.745,205.580 262.387,204.850 263.171 M196.812 266.107 C 197.533 266.846,198.198 267.450,198.291 267.450 C 198.383 267.450,197.869 266.846,197.148 266.107 C 196.427 265.369,195.761 264.765,195.669 264.765 C 195.577 264.765,196.091 265.369,196.812 266.107 "
            stroke="none" fill="#848484" fill-rule="evenodd"></path>
        <path id="path3"
            d="M1.509 199.161 C 1.509 308.238,1.547 352.811,1.594 298.211 C 1.641 243.611,1.641 154.366,1.594 99.889 C 1.547 45.411,1.509 90.084,1.509 199.161 M229.324 171.477 C 229.324 173.784,229.378 174.727,229.443 173.574 C 229.509 172.420,229.509 170.533,229.443 169.379 C 229.378 168.226,229.324 169.169,229.324 171.477 M235.363 171.309 C 235.364 173.523,235.418 174.386,235.484 173.225 C 235.549 172.064,235.549 170.252,235.482 169.198 C 235.416 168.144,235.362 169.094,235.363 171.309 "
            stroke="none" fill="#464646" fill-rule="evenodd"></path>
        <path id="path4"
            d="M100.783 0.923 C 155.382 0.970,244.627 0.970,299.105 0.923 C 353.582 0.876,308.909 0.838,199.832 0.838 C 90.755 0.838,46.183 0.876,100.783 0.923 M139.346 163.999 C 139.853 164.076,140.684 164.076,141.191 163.999 C 141.699 163.922,141.284 163.859,140.268 163.859 C 139.253 163.859,138.838 163.922,139.346 163.999 M117.869 167.023 C 118.561 167.095,119.694 167.095,120.386 167.023 C 121.078 166.951,120.512 166.891,119.128 166.891 C 117.743 166.891,117.177 166.951,117.869 167.023 M207.312 167.363 C 208.473 167.429,210.285 167.428,211.339 167.362 C 212.393 167.295,211.443 167.242,209.228 167.242 C 207.013 167.243,206.151 167.297,207.312 167.363 M257.529 207.802 L 256.544 208.893 257.634 207.907 C 258.234 207.365,258.725 206.874,258.725 206.816 C 258.725 206.557,258.448 206.785,257.529 207.802 M143.289 209.837 C 143.289 209.894,143.779 210.385,144.379 210.927 L 145.470 211.913 144.484 210.822 C 143.565 209.806,143.289 209.577,143.289 209.837 M215.583 251.762 L 214.597 252.852 215.688 251.867 C 216.705 250.948,216.933 250.671,216.674 250.671 C 216.616 250.671,216.125 251.162,215.583 251.762 M185.235 253.796 C 185.235 253.854,185.726 254.345,186.326 254.887 L 187.416 255.872 186.431 254.782 C 185.512 253.765,185.235 253.537,185.235 253.796 M208.536 259.144 L 207.550 260.235 208.641 259.249 C 209.241 258.707,209.732 258.216,209.732 258.159 C 209.732 257.899,209.455 258.128,208.536 259.144 M192.282 261.179 C 192.282 261.237,192.773 261.727,193.372 262.269 L 194.463 263.255 193.477 262.164 C 192.559 261.148,192.282 260.920,192.282 261.179 M201.489 266.527 L 200.503 267.617 201.594 266.632 C 202.194 266.090,202.685 265.599,202.685 265.541 C 202.685 265.282,202.408 265.510,201.489 266.527 "
            stroke="none" fill="#3c3c3c" fill-rule="evenodd"></path>
    </g>
</svg>